<?xml version="1.0" encoding="UTF-8" standalone="no"?>
<!-- Created with Inkscape (http://www.inkscape.org/) -->

<svg
   xmlns:osb="http://www.openswatchbook.org/uri/2009/osb"
   xmlns:dc="http://purl.org/dc/elements/1.1/"
   xmlns:cc="http://creativecommons.org/ns#"
   xmlns:rdf="http://www.w3.org/1999/02/22-rdf-syntax-ns#"
   xmlns:svg="http://www.w3.org/2000/svg"
   xmlns="http://www.w3.org/2000/svg"
   xmlns:xlink="http://www.w3.org/1999/xlink"
   xmlns:sodipodi="http://sodipodi.sourceforge.net/DTD/sodipodi-0.dtd"
   xmlns:inkscape="http://www.inkscape.org/namespaces/inkscape"
   width="354.33069"
   height="354.33069"
   id="svg3046"
   version="1.1"
   inkscape:version="0.48.4 r9939"
   sodipodi:docname="MiniFrame.pdf">
  <defs
     id="defs3048">
    <linearGradient
       id="linearGradient3931"
       osb:paint="solid">
      <stop
         style="stop-color:#ffffff;stop-opacity:1;"
         offset="0"
         id="stop3933" />
    </linearGradient>
    <clipPath
       clipPathUnits="userSpaceOnUse"
       id="clipPath44">
      <path
         inkscape:connector-curvature="0"
         d="m 426.246,293.097 222.474,0 0,-241.351 -222.474,0 0,241.351 z"
         id="path46" />
    </clipPath>
    <linearGradient
       inkscape:collect="always"
       xlink:href="#linearGradient3931"
       id="linearGradient3935"
       x1="145.4734"
       y1="841.17744"
       x2="342.05283"
       y2="841.17744"
       gradientUnits="userSpaceOnUse" />
    <linearGradient
       inkscape:collect="always"
       xlink:href="#linearGradient3931"
       id="linearGradient3937"
       x1="65.664875"
       y1="954.40284"
       x2="166.14771"
       y2="954.40284"
       gradientUnits="userSpaceOnUse" />
    <linearGradient
       inkscape:collect="always"
       xlink:href="#linearGradient3931"
       id="linearGradient3939"
       x1="30.501917"
       y1="788.27991"
       x2="141.67298"
       y2="788.27991"
       gradientUnits="userSpaceOnUse" />
  </defs>
  <sodipodi:namedview
     id="base"
     pagecolor="#000000"
     bordercolor="#666666"
     borderopacity="1.0"
     inkscape:pageopacity="0"
     inkscape:pageshadow="2"
     inkscape:zoom="0.35"
     inkscape:cx="-769.66051"
     inkscape:cy="213.4333"
     inkscape:document-units="mm"
     inkscape:current-layer="layer1"
     showgrid="false"
     units="mm"
     inkscape:window-width="1600"
     inkscape:window-height="848"
     inkscape:window-x="-8"
     inkscape:window-y="-8"
     inkscape:window-maximized="1" />
  <metadata
     id="metadata3051">
    <rdf:RDF>
      <cc:Work
         rdf:about="">
        <dc:format>image/svg+xml</dc:format>
        <dc:type
           rdf:resource="http://purl.org/dc/dcmitype/StillImage" />
        <dc:title></dc:title>
      </cc:Work>
    </rdf:RDF>
  </metadata>
  <g
     inkscape:label="Layer 1"
     inkscape:groupmode="layer"
     id="layer1"
     transform="translate(0,-698.03148)">
    <path
       inkscape:connector-curvature="0"
       d="m 78.100453,823.80924 c 0,0 -44.176383,-107.1411 -45.626607,-111.3219 -1.454436,-4.1794 -2.650555,-7.2062 -1.357567,-7.76635 2.431547,-1.06977 19.971819,21.42344 25.155001,28.27445 0,0 40.871613,55.8217 50.89543,71.00062 10.01679,15.1719 40.03348,58.44277 33.53064,64.75468 -6.50144,6.31052 -20.76642,2.12269 -30.78182,-4.23555 -14.391329,-9.14357 -19.08034,-13.53355 -31.815077,-40.70595 z"
       style="fill:url(#linearGradient3939);stroke:#ffffff;stroke-width:0.10000000000000001;stroke-linecap:butt;stroke-linejoin:miter;stroke-miterlimit:4;stroke-opacity:1;stroke-dasharray:none;fill-opacity:1"
       id="path48" />
    <path
       inkscape:connector-curvature="0"
       d="m 146.43507,942.59144 -74.323636,94.87526 c 0,0 -4.959963,5.8781 -6.106946,5.0498 -2.138133,-1.5611 8.691518,-27.887 12.090349,-35.774 0,0 28.251993,-63.04339 36.477423,-79.25136 8.22823,-16.20095 30.97976,-63.6442 39.74007,-61.19019 8.76171,2.43576 12.25601,16.78497 11.71972,28.58331 -0.76372,16.95064 -2.24904,23.18253 -19.59698,47.70718 z"
       style="fill:url(#linearGradient3937);stroke:#ffffff;stroke-width:0.10000000000000001;stroke-linecap:butt;stroke-linejoin:miter;stroke-miterlimit:4;stroke-opacity:1;stroke-dasharray:none;fill-opacity:1"
       id="path50" />
    <path
       inkscape:connector-curvature="0"
       d="m 215.73136,822.59627 118.87626,17.04751 c 0,0 7.53752,1.38424 7.38028,2.83025 -0.28639,2.72917 -28.42748,6.74712 -36.92667,7.8183 0,0 -68.51993,7.56278 -86.61333,8.6508 -18.09341,1.07538 -70.38291,5.43308 -72.6151,-3.66557 -2.22658,-9.11269 8.46268,-19.69946 18.93153,-25.3712 15.03572,-8.13137 21.16513,-10.04909 50.96703,-7.31009 z"
       style="fill:url(#linearGradient3935);stroke:#ffffff;stroke-width:0.10000000000000001;stroke-linecap:butt;stroke-linejoin:miter;stroke-miterlimit:4;stroke-opacity:1;stroke-dasharray:none;fill-opacity:1"
       id="path52" />
  </g>
</svg>
